<?xml version="1.0" encoding="iso-8859-1"?>
<!-- Uploaded to: SVG Repo, www.svgrepo.com, Generator: SVG Repo Mixer Tools -->
<svg fill="#000000" height="800px" width="800px" version="1.1" id="Layer_1" xmlns="http://www.w3.org/2000/svg" xmlns:xlink="http://www.w3.org/1999/xlink" 
	 viewBox="0 0 511.999 511.999" xml:space="preserve">
<g>
	<g>
		<path d="M414.673,372.107c-4.294-44.26-24.302-85.466-56.339-116.028c-5.503-5.25-9.238-12.452-10.519-20.281l-0.226-1.385
			c10.296-3.275,16.93-13.715,15.137-24.689l-0.258-1.575c-0.952-5.826-4.128-10.94-8.943-14.403
			c-4.815-3.461-10.673-4.845-16.5-3.891l-4.881,0.798l-8.435-51.605c-0.048-0.292-0.116-0.576-0.195-0.855
			c2.016-6.526,3.105-13.455,3.105-20.633c0-0.319-0.02-0.639-0.061-0.955L312.629,6.649C312.147,2.849,308.916,0,305.086,0h-35.83
			H243.91h-35.83c-3.83,0-7.062,2.849-7.543,6.649l-13.93,109.957c-0.041,0.317-0.061,0.636-0.061,0.955
			c0,6.577,0.931,12.937,2.634,18.976c-0.429,0.759-0.742,1.601-0.891,2.511l-8.435,51.605l-4.88-0.798
			c-5.829-0.955-11.686,0.43-16.501,3.891c-4.815,3.462-7.991,8.577-8.943,14.403l-0.258,1.575
			c-1.794,10.973,4.841,21.412,15.137,24.689l-0.226,1.385c-1.279,7.829-5.015,15.031-10.518,20.281
			c-32.037,30.563-52.045,71.768-56.339,116.028c-4.335,44.696,7.728,89.408,33.966,125.901
			c5.239,7.287,13.001,12.096,21.858,13.543c1.834,0.3,3.669,0.448,5.492,0.448c6.976,0,13.763-2.174,19.54-6.325
			c15.039-10.815,18.479-31.849,7.665-46.891c-34.171-47.524-28.066-113.767,14.199-154.086
			c16.013-15.277,26.826-35.896,30.45-58.06l0.191-1.167c11.742,1.45,22.673-6.641,24.598-18.417l0.258-1.576
			c1.97-12.06-6.236-23.473-18.295-25.444l-5.609-0.917l2.49-15.235c7.054,2.396,14.602,3.714,22.456,3.714
			c7.444,0,14.615-1.178,21.35-3.339l2.429,14.86l-5.608,0.917c-5.826,0.951-10.941,4.127-14.403,8.942
			c-3.462,4.815-4.844,10.675-3.892,16.5l0.258,1.576c1.924,11.776,12.863,19.881,24.597,18.416l0.191,1.168
			c3.622,22.163,14.436,42.782,30.45,58.06c42.265,40.32,48.369,106.562,14.198,154.086c-10.815,15.041-7.376,36.076,7.666,46.891
			c5.778,4.154,12.563,6.325,19.54,6.325c1.822,0,3.658-0.148,5.492-0.448c8.856-1.448,16.619-6.257,21.858-13.543
			C406.945,461.515,419.008,416.803,414.673,372.107z M317.136,193.107l-21.766,3.559l-3.086-18.882
			c7.538-4.486,14.158-10.347,19.531-17.233L317.136,193.107z M248.125,92.341c2.117-1.41,3.389-3.786,3.389-6.329V15.208h10.137
			v70.804c0,2.544,1.272,4.92,3.389,6.329c4.281,2.851,6.838,7.615,6.838,12.743c0,8.434-6.862,15.296-15.296,15.296
			c-8.434,0-15.296-6.862-15.296-15.296C241.286,99.955,243.842,95.191,248.125,92.341z M200.386,159.31
			c5.286,7.097,11.887,13.156,19.433,17.83l-3.192,19.526l-21.766-3.559L200.386,159.31z M234.792,215.042
			c1.817,0.297,3.418,1.296,4.509,2.812c1.091,1.517,1.528,3.353,1.231,5.17l-0.258,1.576c-0.618,3.782-4.198,6.355-7.982,5.739
			l-6.66-1.089c-1.992-0.328-4.029,0.152-5.666,1.33c-1.637,1.178-2.74,2.957-3.065,4.948l-1.415,8.656
			c-3.092,18.919-12.305,36.502-25.938,49.509c-47.724,45.528-54.623,120.318-16.049,173.967c5.919,8.234,4.037,19.747-4.194,25.665
			c-3.988,2.866-8.85,4.007-13.701,3.218c-4.847-0.793-9.096-3.426-11.963-7.413c-24.084-33.496-35.156-74.534-31.177-115.555
			c3.942-40.629,22.303-78.45,51.699-106.494c7.882-7.52,13.22-17.759,15.029-28.832l1.415-8.656
			c0.325-1.99-0.153-4.029-1.331-5.666c-1.178-1.636-2.957-2.739-4.948-3.065l-4.308-0.703c-3.783-0.618-6.358-4.2-5.739-7.983
			l0.258-1.575c0.297-1.817,1.296-3.418,2.812-4.509c1.205-0.867,2.615-1.321,4.054-1.321c0.371,0,0.743,0.029,1.115,0.09
			L234.792,215.042z M256.58,172.39c-30.079,0-54.576-24.345-54.826-54.365L214.78,15.208h21.525v67.088
			c-6.468,5.75-10.228,13.999-10.228,22.789c0,16.82,13.684,30.504,30.504,30.504c16.82,0,30.504-13.684,30.504-30.504
			c0-8.79-3.759-17.04-10.228-22.789V15.208h21.525l13.026,102.818C311.158,148.045,286.659,172.39,256.58,172.39z M368.359,489.131
			c-2.867,3.987-7.116,6.619-11.963,7.413c-4.848,0.788-9.713-0.351-13.701-3.218c-8.232-5.919-10.114-17.431-4.195-25.665
			c38.575-53.65,31.676-128.44-16.048-173.967c-13.635-13.008-22.847-30.591-25.938-49.509l-1.415-8.656
			c-0.325-1.99-1.428-3.771-3.066-4.948c-1.302-0.936-2.856-1.43-4.439-1.43c-0.409,0-0.819,0.032-1.227,0.1l-6.659,1.089
			c-1.818,0.293-3.654-0.14-5.171-1.232c-1.517-1.09-2.515-2.691-2.812-4.508l-0.258-1.576c-0.297-1.817,0.14-3.653,1.231-5.17
			c1.091-1.517,2.692-2.515,4.508-2.812l62.273-10.179c1.819-0.295,3.653,0.141,5.169,1.231c1.517,1.091,2.515,2.692,2.812,4.509
			l0.258,1.575c0.618,3.783-1.957,7.365-5.738,7.982l-4.309,0.704c-1.99,0.325-3.769,1.428-4.948,3.065
			c-1.177,1.637-1.656,3.676-1.331,5.666l1.415,8.656c1.811,11.073,7.148,21.312,15.029,28.832
			c29.398,28.044,47.757,65.865,51.699,106.494C403.516,414.597,392.443,455.635,368.359,489.131z"/>
	</g>
</g>
</svg>