<?xml version="1.0" encoding="iso-8859-1"?>
<!-- Uploaded to: SVG Repo, www.svgrepo.com, Generator: SVG Repo Mixer Tools -->
<!DOCTYPE svg PUBLIC "-//W3C//DTD SVG 1.1//EN" "http://www.w3.org/Graphics/SVG/1.1/DTD/svg11.dtd">
<svg fill="#000000" version="1.1" id="Capa_1" xmlns="http://www.w3.org/2000/svg" xmlns:xlink="http://www.w3.org/1999/xlink" 
	 width="800px" height="800px" viewBox="0 0 249.961 249.961"
	 xml:space="preserve">
<g>
	<path d="M192.181,36.234l-1.899-1.902c-7.843-7.845-7.843-20.604,0-28.447c7.602-7.601,20.856-7.601,28.441,0
		c4.366,4.364,6.425,10.449,5.648,16.711l-0.426,3.423l3.428-0.423c6.21-0.758,12.367,1.3,16.709,5.643
		c7.838,7.843,7.838,20.609,0,28.452c-7.606,7.596-20.851,7.585-28.446,0l-1.901-1.903l-13.028,13.024
		c-4.914-9.095-11.466-17.158-19.191-23.919L192.181,36.234z"/>
	<path d="M36.242,57.788l-1.902,1.903c-7.596,7.596-20.84,7.606-28.447,0c-3.795-3.805-5.887-8.853-5.887-14.228
		c0-5.375,2.092-10.422,5.893-14.224c4.338-4.343,10.475-6.412,16.711-5.643l3.425,0.423l-0.425-3.423
		c-0.78-6.263,1.278-12.352,5.644-16.711c7.601-7.591,20.851-7.591,28.452,0c7.837,7.843,7.837,20.602,0,28.447l-1.903,1.902
		L68.45,46.883c-7.725,6.761-14.27,14.824-19.189,23.918L36.242,57.788z"/>
	<g>
		<path d="M60.222,168.192l-23.98,23.978l-1.902-1.898c-7.596-7.597-20.84-7.606-28.447,0C2.092,194.07,0,199.116,0,204.49
			c0,5.375,2.092,10.426,5.893,14.226c4.344,4.347,10.51,6.4,16.711,5.644l3.425-0.424l-0.425,3.422
			c-0.78,6.262,1.278,12.356,5.643,16.714c7.601,7.591,20.851,7.591,28.452,0c7.837-7.843,7.837-20.604,0-28.446l-1.903-1.906
			l26.437-26.436C75.015,182.338,66.92,175.84,60.222,168.192z"/>
		<circle cx="159.583" cy="116.578" r="11.76"/>
		<circle cx="90.377" cy="116.578" r="11.76"/>
		<path d="M130.689,146.479c-1.438,0-2.788,0.562-3.803,1.579c-1.011,1.021-2.801,1.021-3.812,0
			c-1.015-1.013-2.364-1.579-3.806-1.579c-2.966,0-5.375,2.41-5.375,5.376s2.409,5.375,5.375,5.375c1.441,0,2.791-0.556,3.806-1.579
			c0.507-0.511,1.195-0.789,1.903-0.789c0.711,0,1.405,0.283,1.904,0.789c1.015,1.019,2.364,1.579,3.808,1.579
			c2.966,0,5.376-2.409,5.376-5.375S133.661,146.479,130.689,146.479z"/>
		<path d="M185.913,164.344c1.188-1.36,2.33-2.756,3.413-4.194c10.352-13.696,16.288-30.625,16.288-48.607
			c0-11.202-2.304-21.872-6.451-31.575c-0.751-1.754-1.607-3.446-2.467-5.129c-4.752-9.223-11.203-17.405-18.973-24.145
			c-1.364-1.184-2.771-2.301-4.21-3.389c-13.522-10.238-30.299-16.394-48.525-16.394c-18.221,0-34.998,6.15-48.518,16.383
			c-1.44,1.092-2.848,2.21-4.21,3.394c-7.766,6.74-14.223,14.917-18.969,24.14c-0.866,1.683-1.719,3.375-2.473,5.129
			c-4.144,9.708-6.456,20.378-6.456,31.585c0,17.987,5.939,34.917,16.299,48.618c1.086,1.443,2.226,2.828,3.407,4.194
			c6.667,7.685,14.806,14.168,24.158,18.955c1.688,0.866,3.425,1.664,5.188,2.409c0.123,0.058,0.248,0.122,0.372,0.174
			c1,0.419,1.644,1.396,1.644,2.478v13.873h59.129V188.37c0-1.082,0.646-2.059,1.644-2.478c0.13-0.052,0.252-0.116,0.382-0.179
			c1.764-0.751,3.496-1.543,5.191-2.41C171.116,178.518,179.258,172.028,185.913,164.344z M90.377,133.713
			c-9.449,0-17.137-7.685-17.137-17.134c0-9.449,7.688-17.136,17.137-17.136c9.451,0,17.136,7.687,17.136,17.136
			C107.513,126.028,99.828,133.713,90.377,133.713z M130.689,162.606c-2.05,0-4.013-0.568-5.711-1.639
			c-1.693,1.067-3.659,1.639-5.714,1.639c-5.929,0-10.75-4.819-10.75-10.751c0-5.927,4.821-10.751,10.75-10.751
			c2.056,0,4.016,0.571,5.714,1.644c1.693-1.065,3.662-1.644,5.711-1.644c5.932,0,10.752,4.824,10.752,10.751
			C141.441,157.787,136.621,162.606,130.689,162.606z M159.583,133.713c-9.45,0-17.134-7.685-17.134-17.134
			c0-9.449,7.684-17.136,17.134-17.136c9.453,0,17.138,7.687,17.138,17.136C176.721,126.028,169.036,133.713,159.583,133.713z"/>
		<path d="M244.082,190.264c-7.606-7.594-20.851-7.583-28.446,0l-1.901,1.901l-23.99-23.983
			c-6.687,7.648-14.781,14.146-24.009,19.102l26.439,26.441l-1.904,1.905c-7.842,7.843-7.842,20.604,0,28.447
			c7.602,7.601,20.861,7.601,28.452,0c4.361-4.363,6.415-10.452,5.644-16.714l-0.426-3.423l3.423,0.426
			c6.22,0.756,12.377-1.309,16.714-5.644C251.92,210.875,251.92,198.106,244.082,190.264z"/>
	</g>
</g>
</svg>